#!OML:ASF H:\Dans Jumps\Project 1\Capture day 1\Session 1\subject.ASF
:FULLY-SPECIFIED
:DEGREES
193
root 0.197992 13.8441 -17.1675 24.2474 -1.29457 -0.923143
lowerback 29.6825 0.643067 -0.299011
upperback 13.1796 0.809682 2.21875
thorax -1.50584 0.285861 2.3713
lowerneck -15.8218 1.04593 -0.192126
upperneck 5.0171 1.80517 -3.93491
head 4.08258 0.651319 -1.04439
rclavicle -3.18055e-015 1.98785e-016
rhumerus -29.6762 0.998424 -83.6788
rradius 39.5324
rwrist 10.9187
rhand -15.6023 -22.3818
rfingers 7.12502
rthumb 10.5838 -52.0953
lclavicle -3.18055e-015 1.98785e-016
lhumerus -32.5119 -15.0957 95.4711
lradius 46.0643
lwrist 72.1525
lhand -1.58922 6.57276
lfingers 7.12502
lthumb 24.0673 35.0835
rfemur -82.2108 -3.66368 20.7335
rtibia 83.5074
rfoot -24.4252 -3.97126
rtoes 0.287309
lfemur -81.8128 8.10124 -24.8006
ltibia 82.8145
lfoot -22.9064 8.88694
ltoes -1.5779
194
root 0.19588 13.8148 -17.1722 24.3016 -1.31224 -0.914477
lowerback 29.7578 0.648082 -0.322228
upperback 13.1993 0.809568 2.21337
thorax -1.51708 0.284723 2.37892
lowerneck -15.8533 1.04837 -0.196052
upperneck 4.90351 1.8059 -3.9379
head 4.05239 0.653004 -1.04463
rclavicle 2.78299e-015 3.97569e-015
rhumerus -29.6658 1.16013 -83.8792
rradius 39.6228
rwrist 11.0922
rhand -15.8905 -22.2541
rfingers 7.12502
rthumb 10.3058 -51.9816
lclavicle 2.78299e-015 3.97569e-015
lhumerus -32.5201 -14.9819 95.3841
lradius 46.031
lwrist 72.3403
lhand -1.83241 6.6534
lfingers 7.12502
lthumb 23.8341 35.1948
rfemur -82.5018 -3.67942 20.7495
rtibia 83.8135
rfoot -24.5053 -3.96342
rtoes 0.203591
lfemur -82.0937 8.06353 -24.7969
ltibia 83.1305
lfoot -22.9659 8.97891
ltoes -1.59894
195
root 0.19378 13.7848 -17.1767 24.351 -1.31512 -0.910983
lowerback 29.8371 0.648749 -0.336002
upperback 13.2189 0.806938 2.21454
thorax -1.53004 0.282544 2.38909
lowerneck -15.8815 1.04767 -0.205478
upperneck 4.7901 1.80318 -3.93748
head 4.0216 0.653106 -1.04322
rclavicle -2.38542e-015 -1.40143e-014
rhumerus -29.6578 1.31105 -84.0533
rradius 39.6996
rwrist 11.2373
rhand -16.1087 -22.0944
rfingers 7.12502
rthumb 10.0953 -51.8322
lclavicle -2.38542e-015 -1.40143e-014
lhumerus -32.5466 -14.9523 95.331
lradius 45.9981
lwrist 72.3732
lhand -2.18869 6.60138
lfingers 7.12502
lthumb 23.4924 35.1869
rfemur -82.7891 -3.69964 20.7714
rtibia 84.1266
rfoot -24.5874 -3.96024
rtoes 0.121237
lfemur -82.3746 8.01666 -24.7809
ltibia 83.4536
lfoot -23.027 9.06843
ltoes -1.61592
196
root 0.191723 13.7541 -17.1808 24.3907 -1.30987 -0.912602
lowerback 29.9217 0.649985 -0.346847
upperback 13.2391 0.806207 2.22311
thorax -1.5448 0.28114 2.40521
lowerneck -15.9039 1.04361 -0.219497
upperneck 4.68164 1.79671 -3.93415
head 3.99126 0.651416 -1.04049
rclavicle 2.38542e-015 -5.56597e-015
rhumerus -29.6585 1.46417 -84.2061
rradius 39.7786
rwrist 11.3454
rhand -16.2688 -21.9871
rfingers 7.12502
rthumb 9.94087 -51.7324
lclavicle 2.38542e-015 -5.56597e-015
lhumerus -32.5837 -15.0083 95.3136
lradius 45.9386
lwrist 72.2102
lhand -2.61991 6.38203
lfingers 7.12502
lthumb 23.0787 35.02
rfemur -83.0665 -3.71911 20.7972
rtibia 84.4463
rfoot -24.6716 -3.96196
rtoes 0.0518283
lfemur -82.6484 7.96661 -24.7545
ltibia 83.7835
lfoot -23.0901 9.15934
ltoes -1.63191
197
root 0.189778 13.7229 -17.1846 24.4205 -1.30132 -0.918555
lowerback 30.0125 0.654465 -0.359476
upperback 13.2597 0.809465 2.23942
thorax -1.56195 0.281309 2.42972
lowerneck -15.9283 1.03586 -0.237582
upperneck 4.58691 1.78653 -3.92988
head 3.96539 0.647603 -1.0371
rclavicle 4.77083e-015 -9.24349e-015
rhumerus -29.6641 1.61909 -84.3358
rradius 39.8574
rwrist 11.4049
rhand -16.3603 -21.9358
rfingers 7.12502
rthumb 9.85251 -51.6852
lclavicle 4.77083e-015 -9.24349e-015
lhumerus -32.6199 -15.1247 95.3276
lradius 45.8327
lwrist 71.8548
lhand -3.11129 6.01672
lfingers 7.12502
lthumb 22.6072 34.7129
rfemur -83.3347 -3.73559 20.8254
rtibia 84.7718
rfoot -24.7565 -3.96994
rtoes -0.00553313
lfemur -82.9143 7.9171 -24.7209
ltibia 84.1198
lfoot -23.1531 9.25317
ltoes -1.66414
198
root 0.187945 13.691 -17.1884 24.4444 -1.29443 -0.929073
lowerback 30.1018 0.66311 -0.377678
upperback 13.2812 0.816734 2.2626
thorax -1.57779 0.282895 2.46384
lowerneck -15.9547 1.02688 -0.261611
upperneck 4.50689 1.77634 -3.9242
head 3.94432 0.643485 -1.0323
rclavicle 4.77083e-015 5.56597e-015
rhumerus -29.6747 1.77978 -84.4422
rradius 39.9425
rwrist 11.4033
rhand -16.3762 -21.9504
rfingers 7.12502
rthumb 9.83725 -51.7006
lclavicle 4.77083e-015 5.56597e-015
lhumerus -32.6486 -15.2814 95.3635
lradius 45.6746
lwrist 71.3612
lhand -3.65378 5.5479
lfingers 7.12502
lthumb 22.0864 34.3065
rfemur -83.5991 -3.74566 20.8557
rtibia 85.1017
rfoot -24.8407 -3.98375
rtoes -0.0511567
lfemur -83.1777 7.87371 -24.6843
ltibia 84.4618
lfoot -23.2154 9.34802
ltoes -1.70551
199
root 0.186265 13.6591 -17.1919 24.4597 -1.29213 -0.942773
lowerback 30.191 0.676974 -0.401022
upperback 13.3044 0.829211 2.28977
thorax -1.59192 0.286588 2.50377
lowerneck -15.9858 1.01654 -0.285834
upperneck 4.44311 1.76502 -3.91834
head 3.92899 0.638486 -1.0275
rclavicle 1.19271e-014 -1.78906e-015
rhumerus -29.6921 1.93528 -84.5257
rradius 40.0141
rwrist 11.4032
rhand -16.3872 -21.9543
rfingers 7.12502
rthumb 9.82657 -51.705
lclavicle 1.19271e-014 -1.78906e-015
lhumerus -32.6629 -15.4592 95.4097
lradius 45.4613
lwrist 70.8023
lhand -4.23215 5.00321
lfingers 7.12502
lthumb 21.531 33.8264
rfemur -83.8542 -3.74907 20.8859
rtibia 85.4334
rfoot -24.9257 -4.00297
rtoes -0.0897614
lfemur -83.4328 7.84157 -24.6499
ltibia 84.807
lfoot -23.2829 9.43876
ltoes -1.73939
200
root 0.184781 13.627 -17.1952 24.4688 -1.29459 -0.959711
lowerback 30.2805 0.694147 -0.430073
upperback 13.3276 0.84442 2.321
thorax -1.60627 0.291176 2.55066
lowerneck -16.0165 1.00593 -0.316455
upperneck 4.38714 1.75461 -3.90902
head 3.91593 0.633894 -1.02052
rclavicle -1.59028e-015 2.68359e-015
rhumerus -29.7163 2.09197 -84.5873
rradius 40.0716
rwrist 11.3927
rhand -16.3965 -21.9585
rfingers 7.12502
rthumb 9.81761 -51.7097
lclavicle -1.59028e-015 2.68359e-015
lhumerus -32.6611 -15.6167 95.4579
lradius 45.1991
lwrist 70.2261
lhand -4.84965 4.44756
lfingers 7.12502
lthumb 20.9379 33.3375
rfemur -84.1028 -3.74602 20.9164
rtibia 85.7655
rfoot -25.0094 -4.02836
rtoes -0.130919
lfemur -83.6821 7.8199 -24.6183
ltibia 85.1538
lfoot -23.3531 9.52665
ltoes -1.77087
